<svg width="635" height="600" viewBox="0 0 635 600" fill="none" xmlns="http://www.w3.org/2000/svg">
<path d="M471.581 261.391L490.844 255.772V279.777L471.581 286.801V261.391Z" fill="#EEEEEE"/>
<path d="M471.581 261.391L452.319 255.772V280.042L471.581 286.801V261.391Z" fill="#F3F3F3"/>
<path d="M471.581 251.13L490.844 255.772L471.581 261.391L452.319 255.772L471.581 251.13Z" fill="#DDDDDD"/>
<path d="M464.678 311.614L495.356 299.307V338.962L464.678 352.636V311.614Z" fill="#EEEEEE"/>
<path d="M464.678 311.614L434 299.307V339.477L464.678 352.636V311.614Z" fill="#F3F3F3"/>
<path d="M464.678 287L495.356 299.307L464.678 311.614L434 299.307L464.678 287Z" fill="#DDDDDD"/>
<path d="M410.939 262.857L443.757 254.091V291.539L410.939 302.497V262.857Z" fill="#EEEEEE"/>
<path d="M410.939 262.857L378.121 254.091V291.952L410.939 302.497V262.857Z" fill="#F3F3F3"/>
<path d="M410.939 246.849L443.757 254.091L410.939 262.857L378.121 254.091L410.939 246.849Z" fill="#DDDDDD"/>
<path d="M532.937 111.296L575.03 97.7408V146.017L532.937 162.663V111.296Z" fill="#EEEEEE"/>
<path d="M532.937 111.296L490.844 97.7408V146.644L532.937 162.663V111.296Z" fill="#F3F3F3"/>
<path d="M532.937 85.6124L575.03 97.7408L532.937 111.296L490.844 97.7408L532.937 85.6124Z" fill="#DDDDDD"/>
<path d="M547.919 170.511L580.737 158.383V187.634L547.919 201.189V170.511Z" fill="#EEEEEE"/>
<path d="M547.919 170.511L515.101 158.383V187.634L547.919 201.189V170.511Z" fill="#F3F3F3"/>
<path d="M547.919 145.541L580.737 158.383L547.919 170.511L515.101 158.383L547.919 145.541Z" fill="#DDDDDD"/>
<path d="M533.043 204.756L555.054 196.908V218.906L533.043 226.873V204.756Z" fill="#EEEEEE"/>
<path d="M533.043 204.756L483.71 188.347V209.037L533.043 226.873V204.756Z" fill="#F3F3F3"/>
<path d="M507.997 181.213L555.054 196.908L533.043 204.756L483.71 188.347L507.997 181.213Z" fill="#DDDDDD"/>
<path d="M550.059 230.618L582.164 220.184V253.805L550.059 265.398V230.618Z" fill="#EEEEEE"/>
<path d="M550.059 230.618L517.955 220.184V254.242L550.059 265.398V230.618Z" fill="#F3F3F3"/>
<path d="M550.059 209.75L582.164 220.184L550.059 230.618L517.955 220.184L550.059 209.75Z" fill="#DDDDDD"/>
<path d="M525.803 271.463L556.48 259.156V298.811L525.803 312.485V271.463Z" fill="#EEEEEE"/>
<path d="M525.803 271.463L495.125 259.156V299.326L525.803 312.485V271.463Z" fill="#F3F3F3"/>
<path d="M525.803 246.849L556.48 259.156L525.803 271.463L495.125 259.156L525.803 246.849Z" fill="#DDDDDD"/>
<path d="M544.352 324.257L575.03 311.95V351.605L544.352 365.279V324.257Z" fill="#EEEEEE"/>
<path d="M544.352 324.257L513.674 311.95V352.12L544.352 365.279V324.257Z" fill="#F3F3F3"/>
<path d="M544.352 299.643L575.03 311.95L544.352 324.257L513.674 311.95L544.352 299.643Z" fill="#DDDDDD"/>
<path d="M120.571 455.351L151.249 439.566V490.428L120.571 507.967V455.351Z" fill="#EEEEEE"/>
<path d="M120.571 455.351L89.893 439.566V491.089L120.571 507.967V455.351Z" fill="#F3F3F3"/>
<path d="M120.571 423.781L151.249 439.566L120.571 455.351L89.893 439.566L120.571 423.781Z" fill="#DDDDDD"/>
<path d="M30.6778 231.501L51.3674 223.736V257.588L30.6778 266.825V231.501Z" fill="#EEEEEE"/>
<path d="M30.6778 231.501L9.9881 223.736V258.028L30.6778 266.825V231.501Z" fill="#F3F3F3"/>
<path d="M30.6778 216.885L51.3674 223.736L30.6778 231.501L9.9881 223.736L30.6778 216.885Z" fill="#DDDDDD"/>
<path d="M112.01 231.501L132.699 223.736V257.588L112.01 266.825V231.501Z" fill="#EEEEEE"/>
<path d="M112.01 231.501L91.3199 223.736V258.028L112.01 266.825V231.501Z" fill="#F3F3F3"/>
<path d="M112.01 216.885L132.699 223.736L112.01 231.501L91.3199 223.736L112.01 216.885Z" fill="#DDDDDD"/>
<path d="M80.6183 251.486L111.296 239.18V278.835L80.6183 292.509V251.486Z" fill="#EEEEEE"/>
<path d="M80.6183 251.486L49.9406 239.18V279.35L80.6183 292.509V251.486Z" fill="#F3F3F3"/>
<path d="M80.6183 226.873L111.296 239.18L80.6183 251.486L49.9406 239.18L80.6183 226.873Z" fill="#DDDDDD"/>
<path d="M165.69 255.41L186.92 244.709V273.96L165.69 284.661V255.41Z" fill="#EEEEEE"/>
<path d="M165.69 255.41L122.711 239.001V266.825L165.69 284.661V255.41Z" fill="#F3F3F3"/>
<path d="M143.401 228.3L186.92 244.709L165.69 255.41L122.711 239.001L143.401 228.3Z" fill="#DDDDDD"/>
<path d="M120.571 268.609L151.249 256.302V295.957L120.571 309.631V268.609Z" fill="#EEEEEE"/>
<path d="M120.571 268.609L89.893 256.302V296.472L120.571 309.631V268.609Z" fill="#F3F3F3"/>
<path d="M120.571 243.995L151.249 256.302L120.571 268.609L89.893 256.302L120.571 243.995Z" fill="#DDDDDD"/>
<path d="M212.604 271.463L246.849 254.875V308.323L212.604 326.754V271.463Z" fill="#EEEEEE"/>
<path d="M212.604 271.463L178.359 254.875V309.018L212.604 326.754V271.463Z" fill="#F3F3F3"/>
<path d="M212.604 238.288L246.849 254.875L212.604 271.463L178.359 254.875L212.604 238.288Z" fill="#DDDDDD"/>
<path d="M165.517 288.704L199.762 277.157V318.281L165.517 332.461V288.704Z" fill="#EEEEEE"/>
<path d="M165.517 288.704L131.272 277.157V318.815L165.517 332.461V288.704Z" fill="#F3F3F3"/>
<path d="M165.517 266.825L199.762 277.157L165.517 288.704L131.272 277.157L165.517 266.825Z" fill="#DDDDDD"/>
<path d="M82.0452 313.377L112.723 302.943V336.564L82.0452 348.157V313.377Z" fill="#EEEEEE"/>
<path d="M82.0452 313.377L51.3674 302.943V337L82.0452 348.157V313.377Z" fill="#F3F3F3"/>
<path d="M82.0452 292.509L112.723 302.943L82.0452 313.377L51.3674 302.943L82.0452 292.509Z" fill="#DDDDDD"/>
<path d="M237.574 120.571L258.264 112.723V134.721L237.574 142.687V120.571Z" fill="#EEEEEE"/>
<path d="M237.574 120.571L191.201 104.162V124.851L237.574 142.687V120.571Z" fill="#F3F3F3"/>
<path d="M214.031 97.0273L258.264 112.723L237.574 120.571L191.201 104.162L214.031 97.0273Z" fill="#DDDDDD"/>
<path d="M361.712 162.663L383.829 152.12V189.668L361.712 199.049V162.663Z" fill="#EEEEEE"/>
<path d="M361.712 162.663L339.596 152.12V190.156L361.712 199.049V162.663Z" fill="#F3F3F3"/>
<path d="M361.712 142.687L383.829 152.12L361.712 162.663L339.596 152.12L361.712 142.687Z" fill="#DDDDDD"/>
<path d="M351.183 184.572L372.414 175.361V200.539L351.183 209.75V184.572Z" fill="#EEEEEE"/>
<path d="M351.183 184.572L308.205 170.448V194.398L351.183 209.75V184.572Z" fill="#F3F3F3"/>
<path d="M328.894 161.237L372.414 175.361L351.183 184.572L308.205 170.448L328.894 161.237Z" fill="#DDDDDD"/>
<path d="M455.345 356.718L476.576 346.017V375.268L455.345 385.969V356.718Z" fill="#EEEEEE"/>
<path d="M455.345 356.718L412.366 340.309V368.133L455.345 385.969V356.718Z" fill="#F3F3F3"/>
<path d="M433.056 329.608L476.576 346.017L455.345 356.718L412.366 340.309L433.056 329.608Z" fill="#DDDDDD"/>
<path d="M600.713 236.861L634.958 222.592V280.38L600.713 293.936V236.861Z" fill="#EEEEEE"/>
<path d="M600.713 236.861L566.469 222.592V280.38L600.713 293.936V236.861Z" fill="#F3F3F3"/>
<path d="M600.713 208.323L634.958 222.592L600.713 236.861L566.469 222.592L600.713 208.323Z" fill="#DDDDDD"/>
<path d="M490.844 351.724L523.662 339.596V368.847L490.844 382.402V351.724Z" fill="#EEEEEE"/>
<path d="M490.844 351.724L458.026 339.596V368.847L490.844 382.402V351.724Z" fill="#F3F3F3"/>
<path d="M490.844 326.754L523.662 339.596L490.844 351.724L458.026 339.596L490.844 326.754Z" fill="#DDDDDD"/>
<path d="M157.117 511.831L176.932 504.251V526.992L157.117 535.077V511.831Z" fill="#EEEEEE"/>
<path d="M157.117 511.831L117.004 495.838V517.955L157.117 535.077V511.831Z" fill="#F3F3F3"/>
<path d="M132.469 486.564L176.932 504.251L157.117 511.831L117.004 495.838L132.469 486.564Z" fill="#DDDDDD"/>
<path d="M287.515 467.219L315.339 454.78V507.917L287.515 519.382V467.219Z" fill="#EEEEEE"/>
<path d="M287.515 467.219L259.691 454.78V508.502L287.515 519.382V467.219Z" fill="#F3F3F3"/>
<path d="M287.515 445.184L315.339 454.78L287.515 467.219L259.691 454.78L287.515 445.184Z" fill="#DDDDDD"/>
<path d="M136.266 548.193L155.529 542.573V566.578L136.266 573.603V548.193Z" fill="#EEEEEE"/>
<path d="M136.266 548.193L117.004 542.573V566.843L136.266 573.603V548.193Z" fill="#F3F3F3"/>
<path d="M136.266 537.931L155.529 542.573L136.266 548.193L117.004 542.573L136.266 537.931Z" fill="#DDDDDD"/>
<path d="M183.353 480.143L211.177 468.728V492.571L183.353 504.4V480.143Z" fill="#EEEEEE"/>
<path d="M183.353 480.143L155.529 468.728V492.92L183.353 504.4V480.143Z" fill="#F3F3F3"/>
<path d="M183.353 455.172L211.177 468.728L183.353 480.143L155.529 468.728L183.353 455.172Z" fill="#DDDDDD"/>
<path d="M247.562 438.763L275.386 427.348V451.191L247.562 463.02V438.763Z" fill="#EEEEEE"/>
<path d="M247.562 438.763L219.738 427.348V451.54L247.562 463.02V438.763Z" fill="#F3F3F3"/>
<path d="M247.562 413.793L275.386 427.348L247.562 438.763L219.738 427.348L247.562 413.793Z" fill="#DDDDDD"/>
<path d="M234.721 477.743L263.971 463.39V524.702L234.721 537.931V477.743Z" fill="#EEEEEE"/>
<path d="M234.721 477.743L205.47 463.39V525.378L234.721 537.931V477.743Z" fill="#F3F3F3"/>
<path d="M234.721 452.319L263.971 463.39L234.721 477.743L205.47 463.39L234.721 452.319Z" fill="#DDDDDD"/>
<path d="M214.204 539.358L235.434 530.083V559.334L214.204 570.036V539.358Z" fill="#EEEEEE"/>
<path d="M214.204 539.358L171.225 522.949V552.2L214.204 570.036V539.358Z" fill="#F3F3F3"/>
<path d="M191.914 513.674L235.434 530.083L214.204 539.358L171.225 522.949L191.914 513.674Z" fill="#DDDDDD"/>
<path d="M280.381 316.052L301.07 308.205V330.202L280.381 338.169V316.052Z" fill="#EEEEEE"/>
<path d="M280.381 316.052L234.007 299.643V320.333L280.381 338.169V316.052Z" fill="#F3F3F3"/>
<path d="M256.837 292.509L301.07 308.205L280.381 316.052L234.007 299.643L256.837 292.509Z" fill="#DDDDDD"/>
<path d="M501.546 33.1748L537.931 16.5874V70.0357L501.546 88.4661V33.1748Z" fill="#EEEEEE"/>
<path d="M501.546 33.1748L465.161 16.5874V70.7298L501.546 88.4661V33.1748Z" fill="#F3F3F3"/>
<path d="M501.546 0L537.931 16.5874L501.546 33.1748L465.161 16.5874L501.546 0Z" fill="#DDDDDD"/>
<path d="M193.341 134.126L221.165 120.571V168.847L193.341 185.493V134.126Z" fill="#EEEEEE"/>
<path d="M193.341 134.126L165.517 120.571V169.474L193.341 185.493V134.126Z" fill="#F3F3F3"/>
<path d="M193.341 108.442L221.165 120.571L193.341 134.126L165.517 120.571L193.341 108.442Z" fill="#DDDDDD"/>
<path d="M306.445 132.699L333.888 121.443V156.956L306.445 168.371V132.699Z" fill="#EEEEEE"/>
<path d="M306.445 132.699L278.24 121.443V156.956L306.445 168.371V132.699Z" fill="#F3F3F3"/>
<path d="M306.445 111.296L333.888 121.443L306.445 132.699L278.24 121.443L306.445 111.296Z" fill="#DDDDDD"/>
<path d="M462.307 67.5386L497.979 55.9915V97.1154L462.307 111.296V67.5386Z" fill="#EEEEEE"/>
<path d="M462.307 67.5386L426.635 55.9915V97.6495L462.307 111.296V67.5386Z" fill="#F3F3F3"/>
<path d="M462.307 45.6599L497.979 55.9915L462.307 67.5386L426.635 55.9915L462.307 45.6599Z" fill="#DDDDDD"/>
<path d="M151.249 318.668L185.493 307.121V348.245L151.249 362.426V318.668Z" fill="#EEEEEE"/>
<path d="M151.249 318.668L117.004 307.121V348.779L151.249 362.426V318.668Z" fill="#F3F3F3"/>
<path d="M151.249 296.79L185.493 307.121L151.249 318.668L117.004 307.121L151.249 296.79Z" fill="#DDDDDD"/>
<path d="M422.354 94.6492L458.026 83.1021V124.226L422.354 138.407V94.6492Z" fill="#EEEEEE"/>
<path d="M422.354 94.6492L386.683 83.1021V124.76L422.354 138.407V94.6492Z" fill="#F3F3F3"/>
<path d="M422.354 72.7705L458.026 83.1021L422.354 94.6492L386.683 83.1021L422.354 72.7705Z" fill="#DDDDDD"/>
<path d="M237.574 330.499L268.252 320.065V353.686L237.574 365.279V330.499Z" fill="#EEEEEE"/>
<path d="M237.574 330.499L206.897 320.065V354.123L237.574 365.279V330.499Z" fill="#F3F3F3"/>
<path d="M237.574 309.631L268.252 320.065L237.574 330.499L206.897 320.065L237.574 309.631Z" fill="#DDDDDD"/>
<path d="M389.536 44.5898L422.354 32.283V71.9381L389.536 85.6123V44.5898Z" fill="#EEEEEE"/>
<path d="M389.536 44.5898L356.718 32.283V72.4531L389.536 85.6123V44.5898Z" fill="#F3F3F3"/>
<path d="M389.536 19.9762L422.354 32.283L389.536 44.5898L356.718 32.283L389.536 19.9762Z" fill="#DDDDDD"/>
<path d="M183.991 181.414L212.604 171.359V199.543L183.991 209.75V181.414Z" fill="#EEEEEE"/>
<path d="M183.991 181.414L119.857 160.389V186.898L183.991 209.75V181.414Z" fill="#F3F3F3"/>
<path d="M151.431 151.249L212.604 171.359L183.991 181.414L119.857 160.389L151.431 151.249Z" fill="#DDDDDD"/>
<path d="M520.429 418.074L497.979 409.512V431.51L520.429 439.477V418.074Z" fill="#EEEEEE"/>
<path d="M520.429 418.074L570.749 400.951V421.641L545.589 430.559L520.429 439.477V418.074Z" fill="#F3F3F3"/>
<path d="M545.976 393.817L497.979 409.512L520.429 418.074L570.749 400.951L545.976 393.817Z" fill="#DDDDDD"/>
<path d="M430.202 387.396L450.892 379.548V401.546L430.202 409.512V387.396Z" fill="#EEEEEE"/>
<path d="M430.202 387.396L383.829 370.987V391.677L430.202 409.512V387.396Z" fill="#F3F3F3"/>
<path d="M406.659 363.853L450.892 379.548L430.202 387.396L383.829 370.987L406.659 363.853Z" fill="#DDDDDD"/>
<path d="M271.106 152.675L305.351 140.547V177.527L271.106 191.201V152.675Z" fill="#EEEEEE"/>
<path d="M271.106 152.675L236.861 140.547V178.042L271.106 191.201V152.675Z" fill="#F3F3F3"/>
<path d="M271.106 125.565L305.351 140.547L271.106 152.675L236.861 140.547L271.106 125.565Z" fill="#DDDDDD"/>
<path d="M228.3 195.658L262.545 184.483V218.555L228.3 231.153V195.658Z" fill="#EEEEEE"/>
<path d="M228.3 195.658L194.055 184.483V219.029L228.3 231.153V195.658Z" fill="#F3F3F3"/>
<path d="M228.3 172.652L262.545 184.483L228.3 195.658L194.055 184.483L228.3 172.652Z" fill="#DDDDDD"/>
<path d="M309.631 201.189L342.449 185.493V214.744L309.631 230.44V201.189Z" fill="#EEEEEE"/>
<path d="M309.631 201.189L278.24 185.493V214.744L309.631 230.44V201.189Z" fill="#F3F3F3"/>
<path d="M309.631 174.078L342.449 185.493L309.631 201.189L278.24 185.493L309.631 174.078Z" fill="#DDDDDD"/>
<path d="M57.0749 194.055L88.4661 182.64V214.982L57.0749 226.873V194.055Z" fill="#EEEEEE"/>
<path d="M57.0749 194.055L25.6837 182.64V215.43L57.0749 226.873V194.055Z" fill="#F3F3F3"/>
<path d="M57.0749 169.798L88.4661 182.64L57.0749 194.055L25.6837 182.64L57.0749 169.798Z" fill="#DDDDDD"/>
<path d="M599.287 308.205L630.678 296.79V329.132L599.287 341.023V308.205Z" fill="#EEEEEE"/>
<path d="M599.287 308.205L567.895 296.79V329.58L599.287 341.023V308.205Z" fill="#F3F3F3"/>
<path d="M599.287 283.948L630.678 296.79L599.287 308.205L567.895 296.79L599.287 283.948Z" fill="#DDDDDD"/>
<path d="M318.918 54.2211L349.584 43.5196V75.6242L318.918 87.0392V54.2211Z" fill="#EEEEEE"/>
<path d="M318.918 54.2211L256.837 32.818V65.6361L318.918 87.0392V54.2211Z" fill="#F3F3F3"/>
<path d="M280.772 18.5493L349.584 43.5196L318.918 54.2211L256.837 32.818L280.772 18.5493Z" fill="#DDDDDD"/>
<path d="M373.841 404.518L406.659 392.39V421.641L373.841 435.196V404.518Z" fill="#EEEEEE"/>
<path d="M373.841 404.518L341.023 392.39V421.641L373.841 435.196V404.518Z" fill="#F3F3F3"/>
<path d="M373.841 379.548L406.659 392.39L373.841 404.518L341.023 392.39L373.841 379.548Z" fill="#DDDDDD"/>
<path d="M487.99 378.835L520.809 366.706V395.957L487.99 409.512V378.835Z" fill="#EEEEEE"/>
<path d="M487.99 378.835L455.172 366.706V395.957L487.99 409.512V378.835Z" fill="#F3F3F3"/>
<path d="M487.99 353.864L520.809 366.706L487.99 378.835L455.172 366.706L487.99 353.864Z" fill="#DDDDDD"/>
<path d="M412.366 420.214L445.184 408.086V437.337L412.366 450.892V420.214Z" fill="#EEEEEE"/>
<path d="M412.366 420.214L379.548 408.086V437.337L412.366 450.892V420.214Z" fill="#F3F3F3"/>
<path d="M412.366 395.244L445.184 408.086L412.366 420.214L379.548 408.086L412.366 395.244Z" fill="#DDDDDD"/>
<path d="M336.029 500.383L363.853 487.345V543.037L336.029 555.054V500.383Z" fill="#EEEEEE"/>
<path d="M336.029 500.383L308.205 487.345V543.651L336.029 555.054V500.383Z" fill="#F3F3F3"/>
<path d="M336.029 476.576L363.853 487.345L336.029 500.383L308.205 487.345L336.029 476.576Z" fill="#DDDDDD"/>
<path d="M308.918 529.723L342.449 513.851V546.858L308.918 562.188V529.723Z" fill="#EEEEEE"/>
<path d="M308.918 529.723L275.386 513.851V547.309L308.918 562.188V529.723Z" fill="#F3F3F3"/>
<path d="M308.918 497.979L342.449 513.851L308.918 529.723L275.386 513.851L308.918 497.979Z" fill="#DDDDDD"/>
<path d="M271.819 530.001L299.643 517.562V570.699L271.819 582.164V530.001Z" fill="#EEEEEE"/>
<path d="M271.819 530.001L243.995 517.562V571.285L271.819 582.164V530.001Z" fill="#F3F3F3"/>
<path d="M271.819 507.967L299.643 517.562L271.819 530.001L243.995 517.562L271.819 507.967Z" fill="#DDDDDD"/>
<path d="M236.147 575.743L263.971 564.328V588.171L236.147 600V575.743Z" fill="#EEEEEE"/>
<path d="M236.147 575.743L208.323 564.328V588.52L236.147 600V575.743Z" fill="#F3F3F3"/>
<path d="M236.147 550.773L263.971 564.328L236.147 575.743L208.323 564.328L236.147 550.773Z" fill="#DDDDDD"/>
<path d="M452.319 396.671L486.564 384.542V454.637L452.319 466.587V396.671Z" fill="#EEEEEE"/>
<path d="M452.319 396.671L418.074 384.542V455.41L452.319 466.587V396.671Z" fill="#F3F3F3"/>
<path d="M452.319 370.987L486.564 384.542L452.319 396.671L418.074 384.542L452.319 370.987Z" fill="#DDDDDD"/>
<path d="M447.325 494.206L466.587 486.114V520.681L447.325 530.797V494.206Z" fill="#EEEEEE"/>
<path d="M447.325 494.206L428.062 486.114V521.062L447.325 530.797V494.206Z" fill="#F3F3F3"/>
<path d="M447.325 479.429L466.587 486.114L447.325 494.206L428.062 486.114L447.325 479.429Z" fill="#DDDDDD"/>
<path d="M463.02 514.182L482.283 506.09V540.658L463.02 550.773V514.182Z" fill="#EEEEEE"/>
<path d="M463.02 514.182L443.757 506.09V541.039L463.02 550.773V514.182Z" fill="#F3F3F3"/>
<path d="M463.02 499.406L482.283 506.09L463.02 514.182L443.757 506.09L463.02 499.406Z" fill="#DDDDDD"/>
<path d="M544.352 432.616L563.615 426.997V451.002L544.352 458.026V432.616Z" fill="#F7DBCA"/>
<path d="M544.352 432.616L525.089 426.997V451.266L544.352 458.026V432.616Z" fill="#F9E3D8"/>
<path d="M544.352 422.354L563.615 426.997L544.352 432.616L525.089 426.997L544.352 422.354Z" fill="#F4D1B8"/>
<path d="M236.147 572.45L255.41 566.83V590.835L236.147 597.86V572.45Z" fill="#F7DBCA"/>
<path d="M236.147 572.45L216.885 566.83V591.1L236.147 597.86V572.45Z" fill="#F9E3D8"/>
<path d="M236.147 562.188L255.41 566.83L236.147 572.45L216.885 566.83L236.147 562.188Z" fill="#F4D1B8"/>
<path d="M180.499 556.754L199.762 551.134V575.14L180.499 582.164V556.754Z" fill="#F7DBCA"/>
<path d="M180.499 556.754L161.237 551.134V575.404L180.499 582.164V556.754Z" fill="#F9E3D8"/>
<path d="M180.499 546.492L199.762 551.134L180.499 556.754L161.237 551.134L180.499 546.492Z" fill="#F4D1B8"/>
<path d="M269.679 205.826L303.924 193.52V233.175L269.679 246.849V205.826Z" fill="#F7DBCA"/>
<path d="M269.679 205.826L235.434 193.52V233.69L269.679 246.849V205.826Z" fill="#F9E3D8"/>
<path d="M269.679 181.213L303.924 193.52L269.679 205.826L235.434 193.52L269.679 181.213Z" fill="#F4D1B8"/>
<path d="M492.271 442.643L525.089 433.877V471.325L492.271 482.283V442.643Z" fill="#F7DBCA"/>
<path d="M492.271 442.643L459.453 433.877V471.738L492.271 482.283V442.643Z" fill="#F9E3D8"/>
<path d="M492.271 426.635L525.089 433.877L492.271 442.643L459.453 433.877L492.271 426.635Z" fill="#F4D1B8"/>
<path d="M193.341 332.461L221.165 318.906V367.182L193.341 383.829V332.461Z" fill="#F7DBCA"/>
<path d="M193.341 332.461L165.517 318.906V367.809L193.341 383.829V332.461Z" fill="#F9E3D8"/>
<path d="M193.341 306.778L221.165 318.906L193.341 332.461L165.517 318.906L193.341 306.778Z" fill="#F4D1B8"/>
<path d="M59.2152 351.011L88.4661 340.309V372.414L59.2152 383.829V351.011Z" fill="#F7DBCA"/>
<path d="M59.2152 351.011L0 329.608V362.426L59.2152 383.829V351.011Z" fill="#F9E3D8"/>
<path d="M22.83 315.339L88.4661 340.309L59.2152 351.011L0 329.608L22.83 315.339Z" fill="#F4D1B8"/>
<path d="M356.005 77.0511L378.121 66.5081V104.056L356.005 113.436V77.0511Z" fill="#F7DBCA"/>
<path d="M356.005 77.0511L333.888 66.5081V104.544L356.005 113.436V77.0511Z" fill="#F9E3D8"/>
<path d="M356.005 57.0749L378.121 66.5081L356.005 77.0511L333.888 66.5081L356.005 57.0749Z" fill="#F4D1B8"/>
<path d="M504.4 479.608L535.077 463.823V514.685L504.4 532.224V479.608Z" fill="#F7DBCA"/>
<path d="M504.4 479.608L473.722 463.823V515.345L504.4 532.224V479.608Z" fill="#F9E3D8"/>
<path d="M504.4 448.038L535.077 463.823L504.4 479.608L473.722 463.823L504.4 448.038Z" fill="#F4D1B8"/>
<path d="M83.3915 406.243L102.735 398.662V421.403L83.3915 429.489V406.243Z" fill="#F7DBCA"/>
<path d="M83.3915 406.243L44.2331 390.25V412.366L83.3915 429.489V406.243Z" fill="#F9E3D8"/>
<path d="M59.3303 380.975L102.735 398.662L83.3915 406.243L44.2331 390.25L59.3303 380.975Z" fill="#F4D1B8"/>
<path d="M109.869 374.916L136.98 363.336V387.524L109.869 399.524V374.916Z" fill="#F7DBCA"/>
<path d="M109.869 374.916L82.7586 363.336V387.878L109.869 399.524V374.916Z" fill="#F9E3D8"/>
<path d="M109.869 349.584L136.98 363.336L109.869 374.916L82.7586 363.336L109.869 349.584Z" fill="#F4D1B8"/>
<path d="M248.989 375.981L269.679 368.133V390.131L248.989 398.097V375.981Z" fill="#F7DBCA"/>
<path d="M248.989 375.981L202.616 359.572V380.262L248.989 398.097V375.981Z" fill="#F9E3D8"/>
<path d="M225.446 352.438L269.679 368.133L248.989 375.981L202.616 359.572L225.446 352.438Z" fill="#F4D1B8"/>
<path d="M210.464 394.709L241.141 384.275V417.895L210.464 429.489V394.709Z" fill="#F7DBCA"/>
<path d="M210.464 394.709L179.786 384.275V418.332L210.464 429.489V394.709Z" fill="#F9E3D8"/>
<path d="M210.464 373.841L241.141 384.275L210.464 394.709L179.786 384.275L210.464 373.841Z" fill="#F4D1B8"/>
<path d="M166.231 396.671L194.055 383.115V431.391L166.231 448.038V396.671Z" fill="#F7DBCA"/>
<path d="M166.231 396.671L138.407 383.115V432.018L166.231 448.038V396.671Z" fill="#F9E3D8"/>
<path d="M166.231 370.987L194.055 383.115L166.231 396.671L138.407 383.115L166.231 370.987Z" fill="#F4D1B8"/>
<path d="M461.927 241.141L439.477 232.58V254.578L461.927 262.545V241.141Z" fill="#F7DBCA"/>
<path d="M461.927 241.141L512.247 224.019V244.709L487.087 253.627L461.927 262.545V241.141Z" fill="#F9E3D8"/>
<path d="M487.474 216.885L439.477 232.58L461.927 241.141L512.247 224.019L487.474 216.885Z" fill="#F4D1B8"/>
</svg>
