<svg width="1310" height="210" viewBox="0 0 1310 210" fill="none" xmlns="http://www.w3.org/2000/svg">
<rect width="1310" height="210" fill="white"/>
<rect width="100" height="100" fill="#F2F2F2" fill-opacity="0.83"/>
<rect x="110" width="100" height="100" fill="#F29900" fill-opacity="0.56"/>
<rect x="220" width="100" height="100" fill="#F29900" fill-opacity="0.65"/>
<rect x="330" width="100" height="100" fill="#F29900" fill-opacity="0.56"/>
<rect x="440" width="100" height="100" fill="#F29900" fill-opacity="0.65"/>
<rect x="550" width="100" height="100" fill="#F2F2F2" fill-opacity="0.83"/>
<rect x="660" width="100" height="100" fill="#F29900" fill-opacity="0.65"/>
<rect x="770" width="100" height="100" fill="#F29900" fill-opacity="0.56"/>
<rect x="880" width="100" height="100" fill="#F29900" fill-opacity="0.56"/>
<rect x="990" width="100" height="100" fill="#F29900" fill-opacity="0.65"/>
<rect x="1100" width="100" height="100" fill="#F2F2F2" fill-opacity="0.83"/>
<rect x="1210" width="100" height="100" fill="#F2F2F2" fill-opacity="0.83"/>
<rect y="110" width="100" height="100" fill="#F29900" fill-opacity="0.65"/>
<rect x="110" y="110" width="100" height="100" fill="#F29900" fill-opacity="0.88"/>
<rect x="220" y="110" width="100" height="100" fill="#F29900" fill-opacity="0.65"/>
<rect x="330" y="110" width="100" height="100" fill="#F29900" fill-opacity="0.92"/>
<rect x="440" y="110" width="100" height="100" fill="#F2F2F2" fill-opacity="0.83"/>
<rect x="550" y="110" width="100" height="100" fill="#F29900" fill-opacity="0.65"/>
<rect x="660" y="110" width="100" height="100" fill="#F2F2F2" fill-opacity="0.83"/>
<rect x="770" y="110" width="100" height="100" fill="#F29900" fill-opacity="0.88"/>
<rect x="880" y="110" width="100" height="100" fill="#F2F2F2" fill-opacity="0.83"/>
<rect x="990" y="110" width="100" height="100" fill="#F2F2F2" fill-opacity="0.83"/>
<rect x="1100" y="110" width="100" height="100" fill="#F29900" fill-opacity="0.88"/>
<rect x="1210" y="110" width="100" height="100" fill="#F29900" fill-opacity="0.65"/>
</svg>
