<svg width="1007" height="208" viewBox="0 0 1007 208" fill="none" xmlns="http://www.w3.org/2000/svg">
<path d="M9.46733 167V41.9091H39.7017V94.804H41.3509L82.7017 41.9091H118.311L73.9673 97.7358L119.105 167H82.946L51.7955 117.831L39.7017 133.101V167H9.46733ZM131.957 167V41.9091H219.178V66.4631H162.191V92.1165H214.72V116.732H162.191V142.446H219.178V167H131.957ZM233.603 41.9091H267.38L293.827 94.2543H294.927L321.374 41.9091H355.151L309.403 125.222V167H279.352V125.222L233.603 41.9091ZM437.16 79.4119C436.753 74.9328 434.941 71.4512 431.724 68.9673C428.548 66.4427 424.008 65.1804 418.104 65.1804C414.194 65.1804 410.937 65.6894 408.331 66.7074C405.725 67.7254 403.77 69.1302 402.467 70.9219C401.164 72.6728 400.492 74.6884 400.452 76.9688C400.37 78.8419 400.737 80.491 401.551 81.9162C402.406 83.3414 403.628 84.6037 405.216 85.7031C406.845 86.7618 408.799 87.6984 411.079 88.5128C413.36 89.3272 415.925 90.0398 418.775 90.6506L429.525 93.0938C435.715 94.4375 441.171 96.2292 445.895 98.4688C450.659 100.708 454.649 103.375 457.866 106.47C461.124 109.565 463.587 113.128 465.257 117.159C466.926 121.19 467.782 125.71 467.822 130.719C467.782 138.618 465.786 145.398 461.836 151.058C457.887 156.718 452.206 161.055 444.795 164.068C437.425 167.081 428.528 168.588 418.104 168.588C407.639 168.588 398.517 167.02 390.74 163.885C382.962 160.75 376.916 155.985 372.599 149.592C368.283 143.199 366.064 135.116 365.942 125.344H394.893C395.138 129.375 396.217 132.734 398.131 135.422C400.044 138.109 402.671 140.145 406.01 141.53C409.39 142.914 413.299 143.607 417.737 143.607C421.809 143.607 425.27 143.057 428.121 141.957C431.012 140.858 433.231 139.331 434.778 137.376C436.326 135.422 437.12 133.182 437.16 130.658C437.12 128.296 436.387 126.28 434.961 124.611C433.536 122.901 431.337 121.435 428.365 120.213C425.433 118.951 421.687 117.79 417.126 116.732L404.055 113.678C393.224 111.194 384.693 107.183 378.463 101.645C372.233 96.0663 369.138 88.5331 369.179 79.0455C369.138 71.3087 371.215 64.5289 375.409 58.706C379.603 52.883 385.406 48.3428 392.817 45.0852C400.228 41.8276 408.677 40.1989 418.165 40.1989C427.856 40.1989 436.265 41.848 443.39 45.1463C450.557 48.4039 456.115 52.9848 460.065 58.8892C464.015 64.7936 466.031 71.6345 466.112 79.4119H437.16ZM480.72 66.4631V41.9091H586.449V66.4631H548.518V167H518.711V66.4631H480.72ZM788.157 167V41.9091H839.83C849.196 41.9091 857.279 43.7415 864.079 47.4062C870.92 51.0303 876.193 56.0999 879.899 62.615C883.604 69.0895 885.457 76.6226 885.457 85.2145C885.457 93.8471 883.563 101.401 879.776 107.875C876.03 114.309 870.675 119.297 863.712 122.839C856.749 126.382 848.483 128.153 838.914 128.153H807.031V104.332H833.295C837.855 104.332 841.663 103.538 844.717 101.95C847.811 100.362 850.153 98.143 851.741 95.2926C853.329 92.4015 854.123 89.0421 854.123 85.2145C854.123 81.3461 853.329 78.0071 851.741 75.1974C850.153 72.3471 847.811 70.1482 844.717 68.6009C841.622 67.0535 837.815 66.2798 833.295 66.2798H818.391V167H788.157ZM969.695 79.4119C969.288 74.9328 967.476 71.4512 964.259 68.9673C961.083 66.4427 956.543 65.1804 950.638 65.1804C946.729 65.1804 943.472 65.6894 940.866 66.7074C938.26 67.7254 936.305 69.1302 935.002 70.9219C933.699 72.6728 933.027 74.6884 932.986 76.9688C932.905 78.8419 933.271 80.491 934.086 81.9162C934.941 83.3414 936.163 84.6037 937.751 85.7031C939.379 86.7618 941.334 87.6984 943.614 88.5128C945.895 89.3272 948.46 90.0398 951.31 90.6506L962.06 93.0938C968.25 94.4375 973.706 96.2292 978.43 98.4688C983.194 100.708 987.184 103.375 990.401 106.47C993.659 109.565 996.122 113.128 997.792 117.159C999.461 121.19 1000.32 125.71 1000.36 130.719C1000.32 138.618 998.321 145.398 994.371 151.058C990.422 156.718 984.741 161.055 977.33 164.068C969.96 167.081 961.063 168.588 950.638 168.588C940.173 168.588 931.052 167.02 923.275 163.885C915.497 160.75 909.45 155.985 905.134 149.592C900.818 143.199 898.599 135.116 898.476 125.344H927.428C927.672 129.375 928.752 132.734 930.665 135.422C932.579 138.109 935.206 140.145 938.545 141.53C941.924 142.914 945.833 143.607 950.272 143.607C954.344 143.607 957.805 143.057 960.655 141.957C963.547 140.858 965.766 139.331 967.313 137.376C968.86 135.422 969.654 133.182 969.695 130.658C969.654 128.296 968.922 126.28 967.496 124.611C966.071 122.901 963.872 121.435 960.9 120.213C957.968 118.951 954.222 117.79 949.661 116.732L936.59 113.678C925.759 111.194 917.228 107.183 910.998 101.645C904.768 96.0663 901.673 88.5331 901.714 79.0455C901.673 71.3087 903.75 64.5289 907.944 58.706C912.138 52.883 917.94 48.3428 925.351 45.0852C932.762 41.8276 941.212 40.1989 950.699 40.1989C960.391 40.1989 968.799 41.848 975.925 45.1463C983.092 48.4039 988.65 52.9848 992.6 58.8892C996.55 64.7936 998.565 71.6345 998.647 79.4119H969.695Z" fill="black"/>
<path d="M641.608 167V41.9091H728.829V66.4631H671.842V92.1165H724.37V116.732H671.842V142.446H728.829V167H641.608Z" fill="white"/>
<path d="M610.148 41.4269C627.898 31.8632 647.661 51.2791 660.087 76.5008C660.251 89.769 665.259 101.419 671.375 110.767L647.598 132.573C615.601 118.178 583.783 64.5601 604.719 45.3579C606.362 43.8321 608.19 42.5155 610.161 41.4386L610.148 41.4269ZM679.748 121.01L655.536 143.199C685.125 195.385 726.537 142.857 679.748 121.01ZM686.038 41.1596C670.238 53.6432 680.534 79.2807 699.061 100.48C711.293 105.818 720.15 114.938 726.432 124.172L755.97 110.954C755.103 76.0935 717.806 26.0798 691.824 37.7191C689.767 38.6235 687.832 39.7789 686.063 41.1585L686.038 41.1596ZM732.677 135.834C734.665 187.124 799.549 169.783 762.696 122.375L732.677 135.834Z" fill="black"/>
</svg>
